<svg viewBox="0 0 545 153" xmlns="http://www.w3.org/2000/svg"><rect width="545" height="153" rx="24" ry="24" fill="#f9dd01"/><g><path d="M109.283 50.407l-.067-.04-.155-.047c.063.053.141.083.222.087zM110.26 57.379l-.076.021.075-.021zM109.312 50.396a.13.13 0 01-.028-.007v.019a.055.055 0 00.028-.012z" fill="#0D0C22"/><path d="M109.284 50.408h.01V50.4l-.01.007zM110.2 57.366l.112-.064.042-.024.038-.04a.645.645 0 00-.193.128zM109.479 50.56l-.11-.106-.075-.04c.04.07.106.123.185.145zM81.73 118.216a.575.575 0 00-.224.174l.07-.045c.047-.043.114-.095.154-.129zM97.844 115.046c0-.1-.049-.081-.037.273 0-.029.012-.058.017-.085.007-.063.012-.125.02-.188zM96.172 118.216a.575.575 0 00-.224.174l.07-.045c.047-.043.114-.095.154-.129zM70.383 118.97a.474.474 0 00-.237-.11c.071.034.142.068.19.094l.047.016zM67.83 116.525a.75.75 0 00-.094-.294c.036.094.067.19.09.289l.003.005z" fill="#0D0C22"/><path d="M84.981 72.788c-3.505 1.501-7.483 3.203-12.64 3.203a23.932 23.932 0 01-6.38-.88l3.566 36.611a6.117 6.117 0 006.097 5.614s5.056.263 6.743.263c1.816 0 7.26-.263 7.26-.263a6.117 6.117 0 006.097-5.614l3.82-40.457c-1.708-.583-3.43-.97-5.372-.97-3.359-.001-6.065 1.156-9.19 2.493z" fill="#fff"/><path d="M54.922 57.168l.06.057.04.024a.606.606 0 00-.1-.08z" fill="#0D0C22"/><path d="M116.033 53.79l-.537-2.71c-.482-2.43-1.575-4.726-4.07-5.604-.8-.281-1.707-.402-2.32-.983-.613-.582-.794-1.485-.936-2.323-.263-1.538-.51-3.076-.779-4.611-.232-1.32-.416-2.802-1.021-4.013-.788-1.625-2.422-2.575-4.048-3.204a23.325 23.325 0 00-2.546-.788c-4.06-1.072-8.33-1.465-12.508-1.69a104.999 104.999 0 00-15.045.25c-3.723.338-7.645.748-11.184 2.036-1.293.471-2.625 1.037-3.609 2.036-1.206 1.228-1.6 3.126-.72 4.657.627 1.087 1.688 1.855 2.813 2.364a22.808 22.808 0 004.566 1.486c4.373.966 8.9 1.346 13.367 1.507 4.951.2 9.91.038 14.837-.484a84.304 84.304 0 003.648-.482c1.43-.22 2.348-2.09 1.926-3.392-.504-1.557-1.859-2.16-3.39-1.926-.227.036-.451.069-.677.101l-.163.024a82.566 82.566 0 01-4.782.467c-2.413.169-4.833.246-7.25.25-2.377 0-4.755-.067-7.126-.223a90.482 90.482 0 01-3.238-.27c-.49-.052-.978-.106-1.467-.166l-.464-.06-.101-.014-.482-.07c-.985-.148-1.97-.318-2.944-.524a.443.443 0 010-.864h.018c.845-.18 1.696-.334 2.549-.468l.856-.131h.008c.534-.036 1.071-.131 1.603-.194a101.95 101.95 0 0113.929-.491c2.257.065 4.513.198 6.759.426.483.05.964.103 1.444.162.184.022.369.048.554.07l.373.055c1.087.161 2.169.358 3.244.589 1.594.347 3.641.46 4.35 2.206.226.554.328 1.17.453 1.751l.159.742a.963.963 0 01.328 6.446h-.01l-.23.032-.227.03a139.564 139.564 0 01-6.43.683 152.965 152.965 0 01-12.856.517c-5.762-.004-11.52-.34-17.244-1.003-.62-.073-1.24-.152-1.86-.232.481.062-.348-.047-.517-.071-.393-.055-.787-.113-1.181-.172-1.322-.198-2.637-.443-3.956-.657-1.595-.262-3.121-.13-4.564.657a6.638 6.638 0 00-2.748 2.849c-.622 1.287-.807 2.688-1.086 4.07-.278 1.383-.711 2.87-.547 4.29.353 3.063 2.495 5.552 5.575 6.109a161.37 161.37 0 0046.12 1.528 1.967 1.967 0 012.175 2.158l-.292 2.834-1.762 17.174a13768.006 13768.006 0 01-2.375 23.11c-.168 1.667-.191 3.385-.508 5.032-.499 2.589-2.252 4.179-4.81 4.76a33.557 33.557 0 01-7.139.836c-2.664.014-5.327-.104-7.99-.09-2.844.016-6.328-.247-8.523-2.363-1.928-1.86-2.195-4.77-2.458-7.287-.35-3.332-.697-6.664-1.04-9.995l-1.93-18.525-1.25-11.985-.061-.594c-.15-1.43-1.162-2.83-2.757-2.757-1.366.06-2.918 1.221-2.757 2.757l.925 8.886 1.914 18.381c.546 5.221 1.09 10.443 1.632 15.666.106 1 .204 2.004.314 3.004.6 5.467 4.775 8.414 9.946 9.243 3.02.486 6.113.586 9.177.636 3.929.063 7.896.214 11.76-.498 5.726-1.05 10.022-4.873 10.635-10.804l.525-5.137 1.744-16.996 1.898-18.513.87-8.484a1.97 1.97 0 011.587-1.732c1.637-.319 3.202-.864 4.367-2.11 1.853-1.984 2.222-4.57 1.567-7.178zm-61.588 1.83c.025-.012-.021.202-.041.302-.004-.151.004-.285.04-.302zm.158 1.229c.014-.01.053.043.094.106-.062-.058-.101-.101-.095-.106h.001zm.157.206c.056.096.086.156 0 0zm.314.254h.007c0 .01.015.019.02.028a.207.207 0 00-.029-.028h.002zm54.949-.38c-.589.559-1.475.819-2.35.949-9.821 1.457-19.785 2.195-29.714 1.87-7.105-.243-14.136-1.032-21.17-2.026-.69-.097-1.437-.224-1.911-.732-.893-.958-.454-2.888-.222-4.046.213-1.06.62-2.475 1.881-2.626 1.97-.231 4.257.6 6.205.895 2.346.358 4.7.645 7.064.86 10.086.92 20.341.776 30.383-.568a126.67 126.67 0 005.47-.857c1.62-.29 3.414-.835 4.393.841.67 1.142.76 2.67.656 3.961a2.208 2.208 0 01-.687 1.479h.002z" fill="#0D0C22"/><path fill-rule="evenodd" clip-rule="evenodd" d="M169.59 84.215a9.026 9.026 0 01-2.365 2.856c-1.004.81-2.174 1.469-3.513 1.976-1.337.509-2.684.85-4.037 1.024-1.354.175-2.67.16-3.943-.048-1.274-.206-2.358-.626-3.25-1.261l1.005-10.427c.923-.317 2.085-.643 3.488-.976a31.935 31.935 0 014.324-.714 18.546 18.546 0 014.206.047c1.32.175 2.364.595 3.129 1.262.413.38.765.793 1.052 1.238.286.444.461.905.525 1.38.159 1.334-.048 2.548-.622 3.643zm-14.575-22.211c.67-.413 1.473-.778 2.413-1.096.94-.316 1.904-.54 2.892-.666.986-.126 1.95-.143 2.891-.048.939.096 1.768.357 2.484.786.717.428 1.25 1.048 1.6 1.856.351.81.447 1.834.288 3.072-.127.984-.518 1.817-1.17 2.5-.654.683-1.451 1.253-2.39 1.714-.94.46-1.935.825-2.986 1.094-1.052.27-2.064.47-3.035.596-.972.127-1.816.207-2.532.238-.717.032-1.188.047-1.41.047l.955-10.093zm19.735 15.474a9.755 9.755 0 00-2.054-2.929 7.699 7.699 0 00-3.059-1.832c.51-.413 1.012-1.063 1.506-1.953.493-.888.916-1.856 1.266-2.904.35-1.048.59-2.103.716-3.166.128-1.063.08-1.976-.142-2.738-.543-1.904-1.395-3.396-2.558-4.476a9.485 9.485 0 00-4.06-2.238c-1.546-.41-3.25-.5-5.113-.261-1.865.238-3.768.706-5.71 1.404 0-.158.015-.325.047-.5.031-.173.047-.356.047-.547 0-.476-.238-.888-.716-1.238a3.316 3.316 0 00-1.648-.619c-.622-.063-1.227.071-1.817.405-.59.333-.996.945-1.218 1.832-.255 2.857-.51 5.826-.765 8.904-.255 3.08-.525 6.19-.812 9.333-.287 3.142-.573 6.26-.86 9.355-.287 3.095-.574 6.07-.86 8.927.095.857.334 1.524.717 2 .382.477.828.762 1.338.857.509.096 1.043.007 1.6-.262.557-.269 1.043-.738 1.458-1.404 1.274.698 2.707 1.15 4.3 1.357 1.593.206 3.21.206 4.85 0a22.709 22.709 0 004.85-1.167 20.518 20.518 0 004.349-2.142c1.306-.857 2.405-1.834 3.297-2.928.892-1.096 1.48-2.278 1.768-3.547a12.43 12.43 0 00.239-3.905 11.24 11.24 0 00-.956-3.618zM221.367 102.616a33.521 33.521 0 01-.741 3.31 21.827 21.827 0 01-1.124 3.166c-.43.952-.907 1.72-1.432 2.309-.527.587-1.092.833-1.697.738-.478-.064-.78-.366-.908-.904-.127-.541-.127-1.207 0-2 .127-.794.374-1.691.74-2.69a23.373 23.373 0 013.13-5.81c.67-.903 1.37-1.658 2.103-2.26.16.19.231.665.215 1.428-.017.761-.112 1.666-.286 2.713zm16.198-20.663a2.392 2.392 0 00-1.576-.81c-.621-.063-1.25.286-1.888 1.048-.415.761-.94 1.492-1.577 2.19a20.258 20.258 0 01-1.984 1.904 22.515 22.515 0 01-1.958 1.476c-.621.413-1.107.715-1.458.905a29.765 29.765 0 01-.215-3.285 52.765 52.765 0 01.072-3.57 44.76 44.76 0 01.597-5.19c.303-1.746.741-3.46 1.314-5.144 0-.887-.207-1.61-.621-2.166-.415-.555-.916-.904-1.505-1.047-.59-.143-1.194-.063-1.816.238-.621.302-1.155.85-1.6 1.642-.383 1.048-.821 2.223-1.314 3.524a63.326 63.326 0 01-1.673 3.976 40.079 40.079 0 01-2.08 3.928 20.635 20.635 0 01-2.508 3.38c-.907.984-1.895 1.754-2.962 2.31a6.633 6.633 0 01-3.464.738c-.574-.16-.988-.587-1.244-1.286-.254-.698-.406-1.571-.453-2.619-.048-1.047 0-2.198.143-3.452.144-1.253.335-2.5.573-3.737.24-1.238.503-2.413.79-3.523.286-1.111.556-2.048.812-2.81.382-.92.382-1.69 0-2.309-.383-.62-.908-1.031-1.577-1.238-.67-.206-1.37-.198-2.103.024-.733.222-1.259.714-1.576 1.476a36.985 36.985 0 00-1.482 4.38 45.006 45.006 0 00-1.075 5.023 37.578 37.578 0 00-.455 5.143c-.002.11.004.216.004.326-.695 1.845-1.358 3.24-1.986 4.173-.813 1.207-1.729 1.73-2.748 1.57-.446-.19-.74-.633-.884-1.332-.144-.698-.192-1.555-.144-2.572.05-1.014.168-2.165.358-3.451.193-1.285.431-2.619.717-4 .288-1.38.59-2.768.908-4.165.319-1.397.605-2.714.862-3.953-.033-1.11-.36-1.96-.98-2.547-.622-.586-1.49-.816-2.605-.69-.764.317-1.33.73-1.697 1.238-.367.507-.66 1.159-.883 1.952-.128.413-.32 1.238-.574 2.476a111.87 111.87 0 01-.98 4.261 91.134 91.134 0 01-1.41 5.023c-.541 1.746-1.146 3.326-1.814 4.738-.67 1.412-1.403 2.547-2.199 3.404-.796.857-1.657 1.206-2.58 1.047-.51-.095-.836-.619-.98-1.57-.143-.953-.167-2.127-.071-3.524.095-1.396.286-2.928.573-4.594.286-1.667.58-3.246.884-4.738.302-1.492.581-2.81.837-3.952.254-1.143.43-1.904.525-2.285 0-.92-.208-1.658-.621-2.214-.415-.555-.917-.905-1.506-1.048-.59-.142-1.195-.063-1.816.238-.62.302-1.154.85-1.6 1.643-.16.857-.368 1.85-.622 2.976a140.022 140.022 0 00-.74 3.475c-.24 1.19-.463 2.357-.669 3.5a44.76 44.76 0 00-.454 3c-.064.666-.136 1.484-.215 2.451-.08.97-.12 1.993-.12 3.071 0 1.08.08 2.151.24 3.214.158 1.064.445 2.04.86 2.928.413.89.994 1.62 1.744 2.19.748.572 1.696.889 2.843.953 1.178.063 2.205-.024 3.082-.262a7.492 7.492 0 002.389-1.12 10.47 10.47 0 001.96-1.809c.588-.697 1.17-1.459 1.744-2.285.54 1.207 1.242 2.143 2.102 2.81.86.666 1.768 1.063 2.724 1.19.955.126 1.927-.007 2.915-.405.987-.396 1.878-1.07 2.676-2.023a14.758 14.758 0 001.483-1.982c.197.343.406.675.643.981.781 1.017 1.84 1.714 3.179 2.096 1.432.38 2.833.445 4.204.19a13.415 13.415 0 003.918-1.38 18.486 18.486 0 003.465-2.405 21.862 21.862 0 002.795-2.928c-.033.73-.048 1.42-.048 2.07 0 .652-.016 1.358-.048 2.12-1.593 1.111-3.098 2.444-4.515 4a31.832 31.832 0 00-3.727 4.975c-1.067 1.761-1.904 3.547-2.508 5.356-.606 1.81-.901 3.5-.885 5.071.016 1.571.39 2.944 1.122 4.118.733 1.175 1.927 2.015 3.584 2.523 1.721.54 3.234.556 4.54.048s2.445-1.35 3.416-2.523c.972-1.175 1.768-2.595 2.39-4.261a34.441 34.441 0 001.481-5.214c.367-1.809.598-3.588.693-5.332.096-1.746.096-3.302 0-4.667 2.74-1.142 4.985-2.586 6.737-4.333 1.752-1.744 3.202-3.586 4.349-5.522.35-.476.47-1.048.359-1.714a3.323 3.323 0 00-.813-1.714zM297.844 78.906c.095-.73.238-1.5.43-2.31.19-.809.43-1.594.717-2.356.285-.762.62-1.42 1.003-1.976.382-.555.789-.952 1.218-1.19.431-.238.868-.214 1.315.07.478.287.772.89.884 1.81.11.922 0 1.905-.335 2.952-.335 1.048-.932 2.032-1.792 2.952-.86.921-2.023 1.524-3.488 1.81-.064-.444-.048-1.032.048-1.762zm16.557 1.952c-.526-.158-1.027-.174-1.505-.048-.478.127-.782.46-.908 1a14.22 14.22 0 01-1.22 3.119 16.367 16.367 0 01-2.053 3.024 15.353 15.353 0 01-2.748 2.523c-1.02.73-2.087 1.254-3.202 1.57-1.116.35-2.04.39-2.771.12a3.475 3.475 0 01-1.744-1.38c-.43-.651-.74-1.437-.932-2.357a16.575 16.575 0 01-.335-2.857c1.816.127 3.433-.198 4.851-.977a11.443 11.443 0 003.607-3.094 14.023 14.023 0 002.246-4.333c.509-1.602.796-3.198.86-4.785.031-1.492-.191-2.753-.669-3.785-.478-1.03-1.123-1.834-1.936-2.405-.811-.571-1.743-.904-2.795-1-1.05-.095-2.119.048-3.201.429a7.795 7.795 0 00-3.32 2.167 13.51 13.51 0 00-2.271 3.475 22.01 22.01 0 00-1.433 4.261 38.473 38.473 0 00-.765 4.5 44.393 44.393 0 00-.247 3.814l-.207.47a28.486 28.486 0 01-1.72 3.31c-.653 1.08-1.378 1.984-2.174 2.714-.797.73-1.625.984-2.485.762-.51-.126-.788-.715-.836-1.762-.047-1.048.007-2.349.166-3.904.16-1.555.343-3.238.55-5.047.207-1.81.31-3.539.31-5.19 0-1.428-.27-2.8-.812-4.118-.542-1.317-1.282-2.412-2.22-3.285a7.048 7.048 0 00-3.274-1.738c-1.243-.286-2.58-.096-4.014.57-1.434.668-2.573 1.604-3.416 2.81a34.953 34.953 0 00-2.319 3.81 11.34 11.34 0 00-1.122-2.834 9.163 9.163 0 00-1.816-2.285 8.213 8.213 0 00-2.413-1.524 7.394 7.394 0 00-2.82-.547c-.955 0-1.84.183-2.652.547a9.238 9.238 0 00-2.222 1.405 12.324 12.324 0 00-1.816 1.928c-.541.714-1.02 1.421-1.432 2.119a46 46 0 00-.216-2.167c-.08-.619-.224-1.142-.43-1.57a2.202 2.202 0 00-.884-.977c-.383-.221-.924-.333-1.624-.333-.352 0-.702.071-1.052.214a2.993 2.993 0 00-.932.595 2.51 2.51 0 00-.62.929c-.145.364-.184.786-.12 1.262.03.35.12.77.262 1.261.144.493.278 1.136.407 1.928.127.794.23 1.755.31 2.881.08 1.127.103 2.508.071 4.143-.032 1.635-.15 3.546-.358 5.737-.207 2.19-.534 4.73-.98 7.617-.063.667.191 1.207.765 1.62.573.412 1.226.65 1.96.713a3.905 3.905 0 002.078-.38c.653-.318 1.028-.873 1.123-1.667a50.27 50.27 0 01.55-4.761c.27-1.682.605-3.348 1.003-5 .398-1.65.851-3.22 1.362-4.713.509-1.492 1.075-2.809 1.696-3.952.622-1.143 1.267-2.055 1.935-2.737.67-.683 1.37-1.024 2.103-1.024.892 0 1.584.404 2.079 1.214.493.81.843 1.85 1.05 3.118.208 1.27.303 2.66.288 4.167a64.11 64.11 0 01-.191 4.356 76.129 76.129 0 01-.383 3.738c-.143 1.095-.247 1.85-.31 2.261 0 .73.278 1.31.835 1.738a3.71 3.71 0 001.864.762c.686.08 1.33-.048 1.936-.381.605-.334.955-.896 1.05-1.69a70.8 70.8 0 011.315-6.88c.557-2.301 1.195-4.364 1.912-6.19.716-1.825 1.513-3.317 2.39-4.475.875-1.158 1.807-1.738 2.794-1.738.51 0 .9.35 1.17 1.047.271.699.407 1.65.407 2.857 0 .889-.072 1.802-.215 2.738-.143.936-.31 1.905-.502 2.904-.19 1-.358 2.024-.502 3.071a24.248 24.248 0 00-.214 3.285c0 .794.079 1.715.238 2.762.16 1.047.462 2.04.908 2.976a6.944 6.944 0 001.84 2.38c.78.65 1.776.976 2.986.976 1.816 0 3.425-.389 4.827-1.166a12.09 12.09 0 003.608-3.047c.051-.066.1-.136.15-.201.076.185.145.382.231.558.686 1.397 1.618 2.475 2.797 3.238 1.177.761 2.563 1.182 4.157 1.262 1.593.078 3.327-.215 5.209-.882 1.4-.508 2.619-1.143 3.654-1.904a13.662 13.662 0 002.796-2.785c.828-1.096 1.584-2.357 2.27-3.785a64.548 64.548 0 002.078-4.905c.127-.507.008-.96-.358-1.357a2.96 2.96 0 00-1.338-.833zM340.372 75.548a48.07 48.07 0 01-.646 3.095 38.853 38.853 0 01-1.027 3.5 15.846 15.846 0 01-1.529 3.26c-.606.97-1.298 1.738-2.079 2.31-.781.571-1.68.81-2.7.714-.51-.063-.9-.412-1.17-1.048-.272-.634-.415-1.444-.431-2.428-.016-.983.071-2.063.263-3.237.191-1.174.486-2.325.885-3.453a17.114 17.114 0 011.456-3.118c.574-.952 1.234-1.69 1.984-2.214a3.951 3.951 0 012.46-.738c.892.032 1.848.476 2.868 1.333-.065.413-.175 1.088-.334 2.024zm16.986 3.642a2.058 2.058 0 00-1.528-.166c-.526.142-.901.627-1.124 1.452-.127.889-.413 1.936-.86 3.142a20.1 20.1 0 01-1.647 3.428c-.655 1.08-1.403 1.976-2.247 2.69-.845.715-1.744 1.04-2.7.976-.797-.063-1.355-.468-1.672-1.214-.32-.746-.487-1.681-.502-2.81-.017-1.125.095-2.395.334-3.808a64.19 64.19 0 01.86-4.214c.335-1.396.677-2.737 1.029-4.023.35-1.285.636-2.372.86-3.26.255-.795.174-1.469-.24-2.025a3.45 3.45 0 00-1.552-1.19 3.508 3.508 0 00-1.89-.19c-.636.11-1.049.452-1.241 1.023-1.88-1.619-3.687-2.492-5.423-2.619-1.737-.126-3.338.255-4.803 1.143-1.465.889-2.763 2.174-3.894 3.857a24.373 24.373 0 00-2.748 5.5 24.375 24.375 0 00-1.314 6.07c-.175 2.063-.04 3.944.406 5.642.447 1.698 1.234 3.087 2.366 4.166 1.13 1.079 2.668 1.619 4.611 1.619.86 0 1.688-.175 2.484-.524.797-.35 1.53-.762 2.2-1.238a12.919 12.919 0 001.767-1.5c.509-.524.908-.96 1.194-1.31.223 1.143.59 2.112 1.1 2.905.509.794 1.09 1.445 1.744 1.952.652.507 1.338.88 2.054 1.12.717.237 1.41.356 2.08.356 1.497 0 2.897-.508 4.204-1.524 1.306-1.014 2.477-2.261 3.513-3.737a23.846 23.846 0 002.556-4.666c.669-1.634 1.115-3.087 1.337-4.357.223-.476.184-.975-.119-1.5-.303-.523-.7-.911-1.195-1.166zM443.372 105.475c-.27 1.079-.693 1.992-1.266 2.737-.573.746-1.29 1.135-2.15 1.167-.542.032-.956-.254-1.243-.857-.286-.603-.485-1.38-.597-2.333a24.584 24.584 0 01-.144-3.19c.016-1.174.065-2.333.144-3.476.079-1.142.175-2.206.287-3.19.11-.984.198-1.745.262-2.285 1.083.127 1.984.595 2.7 1.405.717.81 1.266 1.769 1.649 2.88.382 1.111.605 2.31.669 3.595.063 1.285-.04 2.468-.311 3.547zm-17.298 0c-.27 1.079-.693 1.992-1.267 2.737-.573.746-1.289 1.135-2.15 1.167-.541.032-.955-.254-1.241-.857-.288-.603-.487-1.38-.598-2.333a24.396 24.396 0 01-.143-3.19 60.72 60.72 0 01.143-3.476 72.35 72.35 0 01.287-3.19c.11-.984.198-1.745.262-2.285 1.083.127 1.984.595 2.7 1.405.717.81 1.266 1.769 1.649 2.88s.605 2.31.67 3.595c.062 1.285-.042 2.468-.312 3.547zm-17.75-27.043a14.33 14.33 0 01-.217 2.023c-.112.588-.263.96-.454 1.119-.35-.191-.781-.682-1.29-1.476-.51-.794-.908-1.691-1.195-2.69a7.514 7.514 0 01-.262-2.953c.11-.967.613-1.72 1.505-2.261.35-.19.652-.12.907.214.256.334.462.818.623 1.452.158.636.269 1.365.333 2.19.064.826.08 1.62.05 2.382zm-4.23 9.498a8.493 8.493 0 01-1.649 1.357 7.56 7.56 0 01-1.864.857c-.637.19-1.211.238-1.72.142-1.433-.285-2.533-.904-3.297-1.856-.765-.952-1.251-2.071-1.458-3.356-.207-1.286-.184-2.66.072-4.12.254-1.46.684-2.816 1.29-4.07.605-1.254 1.338-2.333 2.198-3.238.86-.904 1.799-1.467 2.82-1.69a16.464 16.464 0 00-.383 5.023c.127 1.73.542 3.357 1.243 4.88.445.922.98 1.762 1.6 2.524a8.7 8.7 0 002.27 1.952c-.255.54-.63 1.071-1.123 1.595zm52.873-9.022c.096-.73.239-1.5.43-2.31.19-.809.43-1.595.716-2.357a9.128 9.128 0 011.004-1.975c.383-.555.789-.953 1.219-1.19.43-.239.868-.215 1.313.07.478.287.773.89.884 1.81.112.92 0 1.904-.334 2.952-.335 1.047-.931 2.031-1.792 2.951-.86.922-2.022 1.524-3.488 1.81-.064-.444-.048-1.031.048-1.761zm19.257 0c.096-.73.239-1.5.43-2.31.191-.809.43-1.595.717-2.357a9.175 9.175 0 011.003-1.975c.383-.555.789-.953 1.219-1.19.43-.239.869-.215 1.314.07.478.287.772.89.884 1.81.112.92 0 1.904-.334 2.952-.335 1.047-.932 2.031-1.793 2.951-.86.922-2.022 1.524-3.488 1.81-.063-.444-.048-1.031.048-1.761zm17.896 2.785a2.96 2.96 0 00-1.338-.834c-.526-.158-1.027-.174-1.506-.047-.478.127-.78.46-.907 1-.256 1.016-.662 2.055-1.219 3.118a16.334 16.334 0 01-2.054 3.024 15.35 15.35 0 01-2.748 2.523c-1.02.73-2.087 1.254-3.201 1.57-1.116.351-2.04.39-2.773.12a3.478 3.478 0 01-1.743-1.38c-.43-.651-.741-1.436-.932-2.357-.19-.92-.303-1.872-.335-2.857 1.816.128 3.433-.197 4.85-.976a11.457 11.457 0 003.608-3.095 14.036 14.036 0 002.246-4.332c.51-1.603.796-3.198.86-4.785.03-1.492-.192-2.754-.67-3.786-.476-1.03-1.122-1.833-1.934-2.404-.813-.572-1.744-.905-2.795-1-1.051-.096-2.12.048-3.202.428a7.807 7.807 0 00-3.32 2.167c-.909 1-1.666 2.16-2.27 3.475a21.942 21.942 0 00-1.435 4.262 38.235 38.235 0 00-.763 4.5 44.284 44.284 0 00-.259 4.114 16.281 16.281 0 01-2.443 3.813 15.314 15.314 0 01-2.747 2.523c-1.02.73-2.086 1.254-3.201 1.57-1.116.351-2.04.39-2.772.12a3.478 3.478 0 01-1.743-1.38c-.43-.651-.741-1.436-.932-2.357a16.562 16.562 0 01-.335-2.857c1.815.128 3.432-.197 4.85-.976a11.445 11.445 0 003.607-3.095 14.013 14.013 0 002.246-4.332c.51-1.603.797-3.198.86-4.785.032-1.492-.19-2.754-.668-3.786-.478-1.03-1.124-1.833-1.936-2.404-.813-.572-1.744-.905-2.796-1-1.05-.096-2.118.048-3.201.428a7.807 7.807 0 00-3.32 2.167c-.909 1-1.666 2.16-2.27 3.475a22.012 22.012 0 00-1.434 4.262 38.465 38.465 0 00-.764 4.5c-.09.832-.151 1.639-.196 2.431-.308.261-.607.524-.928.782a28.611 28.611 0 01-3.463 2.404 21.491 21.491 0 01-3.776 1.762 15.19 15.19 0 01-4.013.833l2.963-31.614c.19-.667.095-1.254-.287-1.762a2.905 2.905 0 00-1.482-1.047c-.605-.19-1.251-.175-1.935.047-.685.223-1.25.731-1.697 1.524-.223 1.206-.454 2.857-.692 4.951-.24 2.095-.478 4.38-.718 6.857-.238 2.476-.477 5.03-.716 7.665-.24 2.635-.447 5.095-.62 7.38-.01.102-.016.193-.023.294-.28.235-.55.473-.838.706a28.707 28.707 0 01-3.465 2.404 21.446 21.446 0 01-3.774 1.762c-1.308.46-2.646.739-4.015.833l2.963-31.614c.191-.667.096-1.254-.287-1.762a2.902 2.902 0 00-1.481-1.047c-.605-.19-1.25-.175-1.936.047-.685.223-1.25.731-1.695 1.524-.224 1.206-.455 2.857-.693 4.951a388.46 388.46 0 00-.717 6.857c-.24 2.476-.478 5.03-.717 7.665a545.557 545.557 0 00-.621 7.38l-.01.134c-.501.23-1.047.434-1.639.604a8.692 8.692 0 01-2.054.31c.127-.572.23-1.207.31-1.905.079-.698.144-1.428.191-2.19.048-.761.063-1.524.048-2.285a27.598 27.598 0 00-.12-2.096 17.942 17.942 0 00-.883-3.88c-.43-1.221-1.012-2.245-1.744-3.071a5.408 5.408 0 00-2.748-1.666c-1.1-.286-2.382-.19-3.846.285-2.168-.285-4.119-.086-5.855.596a12.8 12.8 0 00-4.515 2.975c-1.274 1.303-2.318 2.833-3.13 4.595a19.68 19.68 0 00-1.625 5.427c-.115.788-.17 1.57-.188 2.353-.493 1.006-1.032 1.885-1.628 2.623-.843 1.048-1.72 1.905-2.627 2.571-.909.667-1.809 1.175-2.7 1.524-.893.35-1.69.588-2.39.714a6.728 6.728 0 01-2.389.048c-.764-.126-1.466-.492-2.102-1.095-.51-.444-.9-1.159-1.17-2.143-.272-.984-.43-2.102-.479-3.356-.048-1.254 0-2.564.144-3.928a22.51 22.51 0 01.74-3.88c.35-1.223.796-2.318 1.338-3.287.54-.967 1.178-1.658 1.911-2.07.414.064.67.309.765.737.095.43.119.937.072 1.524-.048.588-.12 1.19-.215 1.81-.096.619-.144 1.135-.144 1.547.16.857.47 1.524.932 2 .462.476.98.754 1.553.833.573.08 1.138-.055 1.696-.405.557-.348 1.012-.904 1.362-1.666.032.032.08.047.144.047l.669-6.046c.191-.826.063-1.555-.383-2.19s-1.035-1-1.768-1.095c-.924-1.334-2.174-2.04-3.75-2.12-1.578-.079-3.195.437-4.85 1.548-1.02.731-1.92 1.738-2.7 3.023-.782 1.286-1.418 2.714-1.912 4.285a27.126 27.126 0 00-1.05 4.976 26.106 26.106 0 00-.122 5.094c.128 1.652.424 3.207.885 4.666.461 1.46 1.107 2.683 1.936 3.666.7.857 1.496 1.485 2.388 1.882a8.993 8.993 0 002.796.737c.971.095 1.935.055 2.891-.119s1.864-.42 2.724-.738a27.093 27.093 0 003.44-1.57 21.178 21.178 0 003.393-2.287 19.945 19.945 0 001.649-1.524c.241.597.51 1.175.836 1.715a10.14 10.14 0 003.488 3.476c1.464.889 3.265 1.316 5.4 1.285 2.294-.032 4.411-.61 6.355-1.737 1.943-1.126 3.536-2.786 4.779-4.976 1.861 0 3.691-.306 5.491-.913l-.044.58c-.127 1.683-.192 2.825-.192 3.428a92.24 92.24 0 01-.214 3.88 89.321 89.321 0 00-.215 4.856 46.498 46.498 0 00.19 5.143c.16 1.73.494 3.301 1.004 4.714.509 1.412 1.234 2.61 2.174 3.595.94.983 2.175 1.57 3.704 1.761 1.624.222 3.025-.064 4.204-.857 1.178-.794 2.135-1.88 2.868-3.261.733-1.382 1.25-2.976 1.553-4.786.302-1.809.39-3.626.262-5.452a20.74 20.74 0 00-1.003-5.165c-.542-1.619-1.29-2.952-2.246-4 .574-.158 1.258-.46 2.055-.904a39.598 39.598 0 002.461-1.5c.208-.137.412-.28.62-.42-.079 1.124-.118 1.926-.118 2.396a92.475 92.475 0 01-.215 3.88 91.538 91.538 0 00-.215 4.856 46.763 46.763 0 00.191 5.143c.16 1.73.494 3.301 1.003 4.714.51 1.412 1.234 2.61 2.174 3.595.94.983 2.174 1.57 3.704 1.761 1.624.222 3.026-.064 4.205-.857 1.178-.794 2.134-1.88 2.867-3.261.732-1.382 1.25-2.976 1.553-4.786.303-1.809.39-3.626.263-5.452a20.837 20.837 0 00-1.004-5.165c-.542-1.619-1.29-2.952-2.246-4 .574-.158 1.259-.46 2.055-.904a39.286 39.286 0 002.46-1.5c.44-.289.876-.587 1.31-.893.165 1.552.518 2.914 1.08 4.06.685 1.396 1.616 2.475 2.795 3.237 1.178.761 2.565 1.182 4.158 1.262 1.593.078 3.328-.215 5.21-.882 1.4-.507 2.618-1.142 3.654-1.904a13.691 13.691 0 002.795-2.785c.048-.063.093-.132.14-.196.148.444.311.871.506 1.267.685 1.397 1.616 2.476 2.795 3.238 1.178.761 2.565 1.182 4.157 1.262 1.593.078 3.329-.215 5.21-.882 1.4-.507 2.62-1.142 3.655-1.904a13.718 13.718 0 002.795-2.785c.828-1.096 1.583-2.357 2.27-3.785a64.814 64.814 0 002.079-4.905c.127-.507.006-.96-.36-1.356z" fill="#0D0C23"/></g></svg>